<?xml version="1.0" encoding="utf-8"?>
<!-- Generator: Adobe Illustrator 16.0.0, SVG Export Plug-In . SVG Version: 6.00 Build 0)  -->
<!DOCTYPE svg PUBLIC "-//W3C//DTD SVG 1.1//EN" "http://www.w3.org/Graphics/SVG/1.1/DTD/svg11.dtd">
<svg version="1.1" id="Layer_1" xmlns="http://www.w3.org/2000/svg" xmlns:xlink="http://www.w3.org/1999/xlink" x="0px" y="0px"
	 width="684.1px" height="350.6px" viewBox="0 0 684.1 350.6" style="enable-background:new 0 0 684.1 350.6;" xml:space="preserve"
	>
<style type="text/css">
<![CDATA[
	.st0{fill-rule:evenodd;clip-rule:evenodd;}
	.st1{fill-rule:evenodd;clip-rule:evenodd;fill:#FE7F27;}
	.st2{fill-rule:evenodd;clip-rule:evenodd;fill:#FEFEFE;}
]]>
</style>
<g>
	<polygon class="st2" points="90,115 103.3,107.3 114.7,105 136.7,106 150.7,109.7 155.7,110.3 153,142.3 139.7,152.7 107,166 
		97,158 73.3,156 74,134 	"/>
	<polygon class="st2" points="95.2,163.8 96.9,155.6 114,160.6 128,186.6 141.7,194 144.7,203.7 137,219 126,227.3 118.7,226.7 
		117.7,224 104.8,222.7 89,210.7 89,191 91.7,174 97.3,166 	"/>
	<path class="st0" d="M83.4,127.2c1.8-0.7,3.6-3.4,5.5-0.8c1.2,1.6,0.7,3.2-0.6,5.4c-1.6,2.8-1.6,7.1,0.5,10.7
		c3.2,5.7,8.2,7.6,14.4,7.6c2.6,0,5.2-0.2,7.7,0c7.7,0.8,13.9-2.4,19.5-7.1c1.7-1.4,4.3-2.9,5.6-2.9c6.5,0.3,7.2-5.1,9.6-8.8
		c0.2-0.2-0.1-0.8,0.1-1c1.3-1.8,2.4-4.4,4.8-3.9c2.9,0.6,0.7,3.4,1.3,5.1l0.2-0.2c-2.8,3.1-5.7,6.1-6.4,10.5l0.2-0.1
		c-4.9,1.4-10,2.3-14.1,5.4c-5.8,4.4-11.5,8.3-19.2,7.3c-0.5-0.1-1-0.2-1.5-0.2c-2.4,0.1-5.2-2.4-7,0.2c-1.4,2,2.3,3.3,2.2,5.5
		c0,0.2-0.1,0.3-0.1,0.5c-10.5-3-21.2-2-31.9-2.1c-2.5,0-3.2-1.4-3.2-3.6c0.1-5.5-0.3-11.1,0.1-16.6c0.5-6.2,4.3-10.7,8.5-14.9
		c2-1.9,4.3-3.7,5.7-6c3.2-5.4-0.5-16.9-6.3-19.8c-2.4-1.2-4-2.9-4.6-5.1C72,83.9,64.1,80.9,58.2,75.8c-1.2-1-3.9-1.2-6,0.6
		c-2.8,2.5-5.8,1.2-6.1-2.1c-0.4-4,6.3-12.5,9.6-13.3c2.3-0.6,5.3-0.6,6.6,1.5c1.6,2.5-1.4,4.7-2.5,6.5c-1,1.5-1.7,1.1,0.2,2.5
		c3.7,2.8,7.1,6,10.5,9.2c3.2,3,6.7,5.8,7.9,10.3c0.4,1.5,1.8,2.3,3.1,3.2c4.8,3.4,8.1,7.7,8.4,14.1c0.2,4.4,4,2.9,5.3,1.5
		c8.9-9.8,20.8-8.1,31.6-6.9c7.1,0.8,14.1,1.4,21.2,1.7c3.6,0.2,5.7,4.2,4,7.4c-0.8,1.5-2.7,1.1-2.9,0.3c-2-6.1-7-2.7-10.6-3.6
		c-0.5-0.1-1,0.1-1.5,0.2c1.1,3.9,1,7.9,0.4,11.7c-0.6,3.9-2.9,7.4-8,6.8c-3.8-0.5-7.6-1.5-11-2.7c-3.5-1.2-1.6-6.2-1.1-9.3
		c0.2-1,2.1-5.8,6.3-2c1.8,1.6,1.1-3.4,3.3-4.2c0.6-0.2,0.8-2.5-1.2-2.4c-7.6,0.1-15.8-1.9-22.4,2.4c-3.7,2.4-8,4-11,6.7
		c-3.1,2.7-5,7.1-8.7,9.7c-0.3,0.2,0,1.3,0,2c-2.8,1.5-4.8,3.5-6.4,6.4c-3.2,5.8-1.5,11.9-2,17.9c-0.2,2,0.5,2.7,2.6,2.6
		c5.6-0.1,11.1,0,16.8,0c-0.5-2.4-2.1-2.1-3.4-2c-1.5,0.1-2.9-0.3-3.4-1.7c-2.2-5.5-5.5-10.7-4.3-17.1
		C83.8,131.4,83.4,129.2,83.4,127.2z M131.9,122.5c2-4.2,1.9-8.4,0.3-12.8C128.2,114,127.7,118.2,131.9,122.5z"/>
	<path class="st0" d="M146.7,206.2c-3.1,6.9-6.1,14-12.6,18.5c-1.6,1.1-0.7,2.5-0.8,3.7c-1.1,9.1,4.1,17.6,1.7,26.7
		c2,0.6,2.6-0.8,3.1-1.6c5-7.5,12.2-8.5,20.6-8.3c5.2,0.2,5.9,5.1,9.7,6.3c0.1,0,0.1,1.7-0.2,1.8c-1.8,0.8-3.9,1.3-5.1-0.5
		c-2.5-3.6-6.1-3.3-9.7-3.2c-6.8,0.1-12.1,3.4-13.7,10.1c-1,4-3.3,1.9-5,2.2c-2.3,0.5-3.6-0.8-3.4-3.2c0-0.7-0.1-1.4,0-2.1
		c1.4-8.8-2.4-17.1-2.1-25.7c0.1-2.1-1.2-1.8-2.6-2.1c-3.7-0.7-8.9,2.7-10.4-3.9c-1.9,0.6-3.8-1.4-6,2.1c-3.6,5.5-3.3,12.3-7.3,17.4
		c-1.4,1.8-0.9,4.1-0.5,6c0.9,4-2.7,6.9-2.3,10.7c0.1,1.3-1.6,0.9-2.5,0.9c-7.6,0-15.2,0-22.8,0c-1.4,0-3.2,0-3-1.6
		c0.1-1.3,1.5-2.6,3.4-2.6c5.7,0,11.4-0.2,17.1,0.1c4.3,0.2,6-2.4,5.9-5.8c-0.3-9.3,3.9-17.3,7-25.6c0.2-0.6,2.3-1.5,0-1.8
		c-2.4-0.3-3.2-2.4-4.8-3.6c-3.1-2.5-5.4-5.8-9.4-7.6c-3.2-1.6-6.3-4.7-5.3-9.6c0.5-2.5,0.1-5.1,0.1-8.5c-3.7,4.1-9,3.2-12.8,6.1
		c-1.9,1.5-2.5,5.6-0.7,7.6c1.7,1.8,3.4,3.3,6.3,3.2c5.8-0.2,9.3,4.1,13.1,7.5c0.9,0.8,1.1,2.5-1.2,2.8c-2.6,0.4-4.1-1-5.7-2.7
		c-1.9-2-3.5-3.9-6.8-3.7c-6.5,0.3-9.4-2.3-10.7-8.7c-0.3-1.8-1.6-2.6-2.7-3.6c-2.8-2.4-1.5-5.1,0.7-5.6c3-0.6,5.6-2.7,8.5-2.6
		c3.7,0.2,6.5-1.5,9.3-3.1c4.2-2.4,3.5-7.4,4.7-11.2c1.4-4.5,1.5-9.5,5.2-13.1c1.6-1.5,0.9-3.2,1.2-4.8c0.3-1.3,1.1-2,2.5-2.1
		c2.1-0.1,1.5,1.4,1.6,2.5c0.2,2.4,0.4,5-2.2,6.4c-3.4,1.9-0.4,6.5-4.2,8.4c4.7,0.4,4.5,0.4,4.7-3.1c0.1-1.4,1.6-2.7,2.6-2.6
		c1.1,0.2,2.9,0.2,3.3,2.3c1.1,5-1.4,7.7-7.6,7.9c2.4,3.6,1.5,9-2,10.9c-4.7,2.5-2.8,6.8-2.7,10.4c0.1,2.6,1.2,5.3,5,5.7
		c3.4,0.4,5.1,3.8,7.1,6c2.8,3,5.6,4.5,9.8,4.4c3.5-0.1,7.7-1.7,9.8,3.6c0.4,1.1,5.1,1.4,7.4-0.9c5.2-5.1,11-9.8,13.1-17.3
		c0.1-0.5,1-0.8,1.6-1.3C144.6,205.3,145.6,205.8,146.7,206.2z"/>
	<path class="st0" d="M542.3,156c-1.6,3.6,0.3,7.7-2.6,10.8c-0.9,1-1.1,2.4-2.6,1.8c-1.6-0.7-2.6-2.3-1.2-3.7
		c1.7-1.7,1.7-3.6,1.6-5.7c-0.1-3.7-0.1-7,5-7.1c2.2-0.1,1.2-2.2,1.2-3.3c0.1-8.6,0.3-17.3,0-25.9c-0.3-9.9,3.8-19.2,3.8-29
		c0.1-6.2,0.3-12.4,0.4-18.6c0.1-4.6,5-8.3,9.3-7.1c1.5,0.4,1,1.6,1,2.5c0,1,0.6,2.5-1.4,2.7c-4.3,0.4-5.1,3.3-4.8,6.9
		c0.8,9.9-0.2,20-2.4,29.5c-2.9,12.4-0.7,24.6-1.7,36.8c-0.1,1.1-1,2.9,1,3.5c1.6,0.5,2.6-0.8,3.4-1.8c1.4-1.8,3.1-2.3,5.4-2.3
		c3.9,0.1,7.5-0.8,9.8-4.5c1.7-2.6,4-1.9,6.3-0.6c1.5,0.8,1.4,2.4,0.4,2.8c-5.6,2-9.8,7.5-16.5,6.6c-4.1-0.6-5.3,5.5-9.7,4.5
		c-0.1,2.1-0.3,4.1-0.3,6.2c0,8.3-0.5,16.6,0.1,24.9c0.8,10.1-3.3,19.8-2.4,29.9c0.3,3.8,1.6,5.1,5.1,5.1c3.5,0,6.9,0.1,10.4-0.1
		c1.8-0.1,3.8,0.1,4.7,1.3c2.9,3.5,6.7,2.8,10.4,2.9c2.3,0,4.7,0.5,5.9-2.5c1.1-2.6,3.4-1.6,4.6-0.5c1.5,1.3,0.7,2.6-1.2,3.3
		c-1.7,0.7-1.2,3.8-3.7,3.8c-5.2,0-10.4-0.1-15.5-0.1c-4.6-7.8-12.1-2.8-18.2-3.9c-3.7-0.7-6.2-1.9-6.4-5.8
		c-0.2-5.7-1.3-11.7,0.2-17c3.8-14.3,0.7-28.6,1.8-42.9C543.7,158.2,544.1,157.1,542.3,156z"/>
	<path class="st1" d="M146.7,206.2c-1-0.5-2.1-0.9-3.1-1.4c-0.7-1-1.6-1.9-2-2.9c-2-6.7-8.3-11.1-15.3-10.4c-0.7,0.1-1.3,0.2-2,0.3
		c2,3.6-2.4,7-0.3,10.6c0.3,0.6,0.7,1.2,0.9,1.8c0.8,2.5,3.6,5.7,1.3,7.3c-2.6,1.9-6.7,0.6-10.1,0.5c-0.4,0-1.2-1-1.2-1.4
		c0.3-1.2,1.2-2.2,2.4-2.4c1.3-0.3,2.7-0.3,4.4-0.4c-1.3-2.4-0.6-5.3-3.9-6.3c-1.5-0.4-1.6-2.1-1.4-3.6c1.7-13-3.7-23.9-9.9-34.6
		c-0.5-0.8-0.5-2-0.7-3c0-0.2,0.1-0.3,0.1-0.5c0.1-2.2-3.6-3.4-2.2-5.5c1.8-2.6,4.6-0.1,7-0.2c0.5,0,1,0.1,1.5,0.2
		c0.7,0.6,1.5,1.3,2.2,1.9c3.9,3,8.9,2.7,13.3,4c4,0.4,8.3-0.8,10.5,4.7c1.7,4.1-0.4,8.8,2.8,12.6c1,1.2-1.2,1.5-2.3,1.5
		c-3.6,0-6.1,3.1-9.9,2.6c0.4,1.6,1.2,1.6,1.8,1.5c4.4-0.3,8.5,0.1,10.8,4.7c0.2,0.3,1.2,0.2,1.9,0.3c4.2,1.2,1.1,4.7,2.1,6.9
		c0.7,1.5-1.9,4.5,2,4.5c2.3,0.6,4.6,1.1,4.1,4.4C151.3,207.8,148.3,205.3,146.7,206.2z M124.9,179.5c1.7-1.9,3.1-2.4,4.7-2.6
		c5.1-0.7,7.5-5,5.5-9.6c-1.6-3.8-5.1-2.8-8.1-2.7c-3.3,0.1-1.9,2.7-2,4.3C124.8,172,124.9,175.1,124.9,179.5z M119.9,179.5
		c0.7-4.9,1.3-9.8,0.4-15C112.5,169.8,120,174.6,119.9,179.5z"/>
	<path class="st0" d="M480.3,212.8c-1.3,1.7-3.6,2.8-3,5.6c0.2,0.9,0.3,2.1-1.3,2.2c-1.4,0.1-2.8-0.8-2.6-1.9
		c0.5-3.7-1.8-6.8-2.1-10.2c-0.2-2.1-0.9-2.5-2.8-2.5c-3.4,0.1-6.9-0.2-10.4,0.1c-5,0.4-9.4-1.6-13.8-3.6c-1.7-0.8-3.4-0.7-5-0.5
		c-5.5,0.6-10.7-0.9-15.9-2.2c-1.9-0.5-1.9-1.9-2.2-3.6c-2.2-13.7,4.3-23.7,13.7-32.4c0.7-0.7,1.5-1.1,2.6-1.4
		c9.3-2.4,18.8-2.3,28.3-1.9c4.3,0.2,5.5-1,5.3-5.3c-0.4-7.6-0.1-15.2-0.1-22.8c0-2-0.1-4.2,2.6-4.1c3,0.1,1.4,2.7,1.5,4
		c0.2,7.6,0.1,15.2,0.1,22.8c0,2.7-0.4,5.2,3.1,6.5c2.2,0.8,0.9,3.6,0.9,5.5c0.1,2.4-1.6,1.5-2.9,1.2c-2.2-0.6-1.1,1.2-1.1,1.8
		c-0.1,9.7-0.1,19.3,0,29c0,0.8-0.1,2.2,0.3,2.5c3.5,1.7,7.7,2.8,0.1,5.2c-2.2,0.7,2,2.5,2.3,4.3C478,211.4,479.6,212,480.3,212.8z
		 M471.1,183.4c0-5.4-0.1-10.7,0-16.1c0-1.8-0.2-2.8-2.5-2.8c-9.8,0.1-19.7-0.5-29.4,2.1c-0.7,0.2-1,0.8-1.4,1.1
		c-5.7,3.5-8.7,9.5-11.9,14.8c-4.8,8.2,0.2,15.1,9.9,15.2c3.4,0,7.1-1,10.2,0.5c6.8,3.3,13.9,3.8,21.2,3.8c3.4,0,4-1.1,3.9-4.1
		C470.9,193.1,471.1,188.3,471.1,183.4z"/>
	<path class="st0" d="M367.4,183.4c1.4,10.2-2.8,21.2-2.3,32.8c0.3,8.2,8.5,10.3,13.9,7.9c2.1-0.9,4-2.2,6-3.4
		c1.5-0.9,3-1.3,4.8-0.8c5.4,1.4,9.4-1,10.8-6.2c0.1-0.5,0.3-1.1,0.6-1.3c6.5-4.2,2.1-8.5-0.3-12.3c-1.6-2.6-2.5-5-2.5-8
		c0.1-6.6,0.1-13.1,0-19.7c0-2.7,0.6-5.3,3.4-5.3c3,0,3,2.8,2.9,5.3c-0.4,7.5,1.6,14.4,3.8,21.5c1.5,4.9,0.6,10.6,0.2,16
		c-0.3,3.8,0.8,5.3,4.7,4.8c2.7-0.4,4.6,0.3,6.2,3.5c2.1,4.2,9.7,2.1,11.7-3.3c0.7-2,2.8-3.4,2.6-5.9c-0.1-1,1.5-1.8,2.9-1.6
		c1.3,0.2,0.9,1.2,1,2c0.7,6.2-9.4,16.7-15.4,15.5c-2.7-0.5-6.6-0.7-7.4-4.7c-0.4-2-1.8-1.1-2.8-1.4c-6-1.7-10,3-14.9,4.7
		c-0.5,0.2-1,0.6-1.4,0.5c-8.3-0.4-15.3,5.5-23.6,5.2c-4.9-0.2-11.2-6.2-11.2-11c0-5.4-1.1-11,0.2-16c2.8-11,1.4-22,1.8-33
		c0.1-1.8,0.6-3.1,2.5-3.2c2.7,0,1.5,2.2,1.6,3.5C367.5,173.4,367.4,177.8,367.4,183.4z"/>
	<path class="st0" d="M323.8,191.6c0,2.5-0.4,5,0.1,7.4c1.5,7.2-3.4,12.8-4.9,19.3c-0.7,2.9-5.2,4-8.9,4.5
		c-8.6,1.1-16.8-1.6-25.2-2.3c-2.7-0.2-4.7-2.5-4.6-5.8c0.1-7.4-0.1-14.9,0.1-22.3c0.1-3.6,3.2-6.8,2-10.7c-0.2-0.6,0.3-1.6-0.1-2
		c-6.2-9.3,4.4-11.8,7.1-17.4c1.1-2.3,3.2-1.9,4.6-0.6c2.1,1.8-0.1,2.5-1.2,3.7c-2.3,2.5-4.3,5.4-7,7.5c-0.4,0.3-1.1-0.1-0.7,1.1
		c2.1,5.7,2.6,11.5-0.4,17.2c-0.5,1-0.3,2.4-0.3,3.6c0,5.5,0.3,11.1-0.1,16.6c-0.3,4.3,1.2,4.6,5.2,5.5c6.4,1.5,12.7,1.7,19.2,1.7
		c3.7,0.1,5.2-1.6,7.2-5.1c4-6.7,3.8-13.5,3.8-20.6c0-1-0.3-2.4,0.3-3c4.8-5.2,3.8-11.6,3.9-17.8c0-1.4-0.3-2.9,0.1-4.1
		c0.8-2.1,2.3-4.3,4.6-4.2c3,0.2,1.5,2.9,1.5,4.5c0.1,12.8,0.1,25.6,0.1,38.4c0,1.6-0.7,3.5,1.8,4c4.2,0.9,6.1,5,9.5,6.9
		c2.1,1.2,1.4,3.4,0.8,4.4c-1.1,1.9-2.6,0.4-3.7-0.6c-3.1-2.9-5.6-6.3-9.8-7.9c-1.9-0.7-3.1-2.8-2.9-5.5c0.3-5.4,0.1-10.9,0.1-16.3
		C325.2,191.6,324.5,191.6,323.8,191.6z"/>
	<path class="st0" d="M128,160.3c-4.4-1.3-9.4-1-13.3-4c13.2,1.3,23.2-4.4,31-14.6l-0.2,0.1c5,0.6,7.3-1.3,6.3-6.5
		c-0.2-1.3,0-2.7,0-4l-0.2,0.2c2-1.4,2.2-3.6,2.2-5.8c0-5.5,0-11.1,0-16.6c0-1.9,0.3-3.6,2.6-3.6c2.6,0.1,1.4,2.3,1.5,3.5
		c0.1,5.9,0.9,11.9-0.2,17.6c-1.1,5.8-1.1,11.9-3.7,17.5c-0.8,1.8-1.6,1.7-2.9,1.8c-5,0.5-7.3,4.5-4.5,8.7c1.6,2.5,0.2,5,1.2,7.4
		c1.5-0.2,2-1.9,3.1-2.4c1.2-0.5,3.1-1,2.8,1.4c-0.6,3.9,1.9,3.2,4.3,3.6c5.9,1.1,12.5,1.2,15.3,8.4c0.6,1.5,1.7,3.3,3.7,3.7
		c3.7,0.8,3.7,3.4,3.8,6.4c0.1,4.7-1.7,6.6-6.4,6.3c-4.7-0.3-8.8,1.4-12.9,3.7c-2.7,1.5-6.3-0.4-9.2,2.3c-1.5,1.4-3.4,2.5-4.8,4.2
		c-4,0-1.3-3-2-4.5c-1-2.2,2.1-5.6-2.1-6.9c1.6-2.3,2.1-4.8,2.2-7.6c0.2-5-1-9.6-2-14.4c-0.9-4.6,0.6-9.6-3.1-14
		C138,157.5,131.1,155.7,128,160.3z M147.3,194c2.4-2,4-4.4,5.6-4.3c7.6,0.3,13.7-5.7,21.4-4.4c1.1,0.2,2.6,0.4,2.5-1.6
		c-0.1-1.1,0.4-2.2-1.5-2.6c-2.6-0.6-4-2.5-4.9-5.2c-0.8-2.2-3-3.8-5.3-5.2c-5.4-3.2-12-0.9-17.2-4.7
		C152.2,175.3,149.4,184.2,147.3,194z"/>
	<path class="st0" d="M228.4,186.9c4.5-9.6,12.5-16,18.7-23.9c0.7-0.9,1.9-2.4,2.6-2.3c8.5,1.4,15.2-6.4,24-4.5
		c2.9,0.6,6.4,1.1,9.2-1.6c1.3-1.2,3.2,0,4.8,0.7c1.1,0.5,0.9,1.3,0.9,2.1c0,0.9-0.8,0.8-1.5,1c-5,1.3-10.1,3-15.4,2
		c-3.9-0.7-7.5,0.5-10.5,2.5c-2.1,1.3-4,2-6.2,1.7c-6-1-7.5,4.5-10.4,7.5c-5.6,5.6-9.9,12.4-13.1,19.8c-0.7,1.7-1,3.2-1,4.8
		c0,8.1,0,16.2,0,24.4c0,1.6,1,3.9-2.4,3.8c-3-0.1-3.8-1.3-3.8-4.1c0.1-13.5,0-26.9,0-40.4c0-2.9,0-5.9,0-8.8c0-0.9,0.6-2.2-0.8-2.6
		c-1.3-0.4-3.5,0-2.5-2.3c0.6-1.4,2.1-2.4,3.8-1.9c1.7,0.5,3.7,0.6,3.7,3.2c-0.1,5.5,0,11.1,0,16.6
		C228.4,185.2,228.4,186.1,228.4,186.9z"/>
	<path class="st0" d="M145.6,86.4c-2.5-6.9,2.6-13.8,4.7-21.2c0.5-1.5,0.6-2-0.1-3.5c-2.2-4.3,2.5-11.1,7.3-11.2
		c1.4,0,2.8-0.1,4.1,0c4.1,0.2,4.5,1,2.9,4.7c-0.3,0.7-0.1,1.7-0.3,2.5c-0.8,3.9-1.2,8.1-7,7.3c-1.7-0.2-2.6,0.6-3.5,2.3
		c-5.3,10-4,20.7-4.1,31.3c0,1.3,1.1,3.5-1.3,3.7c-2.7,0.2-2.8-1.9-2.8-3.9C145.7,94.9,145.6,91.5,145.6,86.4z"/>
	<path class="st0" d="M508.4,177.8c0,3.8,0.4,7.7-0.1,11.4c-0.9,6.4,2.6,12.1,2.6,18.5c0,3.9,3.9,7.7,3.7,12.3
		c0,0.9,0.6,2.2-0.9,2.6c-1.3,0.4-2.6-0.2-3-1.4c-1.6-5.3-3.6-10.5-4.7-16.1c-2.8-14-1.3-27.9-1.8-41.9c0-1.4-0.1-2.8,0.2-4.1
		c0.3-1.3,1.4-1.9,2.8-1.8c1.6,0.2,1.2,1.4,1.2,2.3C508.4,165.7,508.4,171.8,508.4,177.8z"/>
	<path class="st0" d="M495.5,131.6c-0.4-0.1-0.9-0.2-1.4-0.2c-1.5,0-3.8,0.3-3.9-1.4c-0.1-1.4,1.6-2.9,3.7-2.8
		c0.8,0,1.8,0.3,2.1-0.9c0.4-1.5,1.4-2.4,3-2.2c2.2,0.3,1.1,2.2,1.1,3.3c0.1,1.4,0.8,2.6,1.7,2.9c5.1,1.5,6.5,6.4,9.5,9.8
		c2.4,2.8,2.2,6.8,0.2,9.8c-1.8,2.8-4.4,3.3-7.5,0.7c-1.2-1.1-3.9-0.5-6-0.5c-1.5-0.1-3.8,0.2-3.8-1.6
		C494.1,142.9,492.6,137.1,495.5,131.6z M498.1,140.1c-0.7,4.2,0,6.9,5.1,5.8c0.9-0.2,2.2-0.1,3,0.4c2.3,1.3,2-0.1,2.2-1.6
		c0.5-3.2-2.6-4.2-3.7-6.3c-1.1-2-2.2-3.7-4.8-3.2C496.8,135.9,498.5,138.5,498.1,140.1z"/>
	<path class="st0" d="M95.9,135.1c-0.7-5.3,3.4-9.9,2.3-15.3c-0.3-1.3,1.7-2.6,3-1.8c1.8,1.1,5,0.8,5.1,3.9
		c0.2,5.8-0.9,11.2-4.7,15.7c-0.3,0.4-0.8,0.7-1.1,1.1c-0.7,1,0.3,3.5-2.4,2.9c-2.6-0.6-2.1-2.7-2.1-4.5
		C95.9,136.5,95.9,135.8,95.9,135.1z"/>
	<path class="st2" d="M128,160.3c3.1-4.6,10-2.8,12.7-8c3.7,4.3,2.2,9.4,3.1,14c1,4.8,2.1,9.4,2,14.4c-0.1,2.8-0.6,5.3-2.2,7.6
		c-0.6-0.1-1.7,0-1.9-0.3c-2.3-4.7-6.4-5-10.8-4.7c-0.6,0-1.4,0-1.8-1.5c3.7,0.5,6.3-2.5,9.9-2.6c1.1,0,3.3-0.4,2.3-1.5
		c-3.2-3.8-1.2-8.5-2.8-12.6C136.3,159.5,132,160.7,128,160.3z"/>
	<path class="st2" d="M124.9,179.5c0-4.4-0.1-7.5,0.1-10.6c0.1-1.6-1.3-4.2,2-4.3c3-0.1,6.5-1.1,8.1,2.7c2,4.7-0.4,8.9-5.5,9.6
		C128,177.2,126.7,177.6,124.9,179.5z"/>
	<path class="st2" d="M119.9,179.5c0.1-4.9-7.4-9.7,0.4-15C121.2,169.7,120.6,174.6,119.9,179.5z"/>
	<path class="st2" d="M147.3,194c2.1-9.8,4.8-18.7,0.5-28c5.2,3.8,11.9,1.6,17.2,4.7c2.3,1.4,4.6,2.9,5.3,5.2
		c0.9,2.7,2.3,4.6,4.9,5.2c1.9,0.4,1.4,1.5,1.5,2.6c0.1,2-1.4,1.7-2.5,1.6c-7.7-1.3-13.8,4.7-21.4,4.4
		C151.4,189.7,149.8,192,147.3,194z"/>
</g>
</svg>
